<svg fill="none" height="24" viewBox="0 0 24 24" width="24" xmlns="http://www.w3.org/2000/svg"><path d="m22.5303 2.53033c.2929-.2929.2929-.76777 0-1.06066s-.7677-.29289-1.0606 0zm-19.34068 10.09917.64076-.3898zm-.74109-1.2182-.66801.341.01272.0249.01454.0239zm1.66148-5.41413.35018.66323zm3.06895-1.27917.20615.72112zm5.96254-.57535.5303-.53033-.1835-.18353-.2577-.03083zm-1.7712 16.66765.3898-.6408zm1.2183.7412-.3897.6407.0238.0146.025.0127zm5.4141-1.6615-.6632-.3502zm1.2792-3.069.7211.2062zm.5753-5.9626.7447-.089-.0308-.2577-.1835-.1836zm1.6125-9.38873-2.3574 2.35742 1.0606 1.06066 2.3574-2.35742zm-7.5832 3.41816c1.4431-1.44308 3.7827-1.44312 5.2258-.00008l1.0606-1.06066c-2.0288-2.02887-5.3182-2.02875-7.347.00009zm5.2258-.00008c1.443 1.44308 1.4431 3.78283 0 5.22585l1.0607 1.0607c2.0288-2.02887 2.0288-5.31837-.0001-7.34721zm-15.28192 7.35195-.7411-1.2182-1.2815.7796.74109 1.2182zm.62981-5.5793c.92195-.48679 1.93522-.93835 2.92492-1.22128l-.4123-1.44223c-1.1237.32124-2.23729.82188-3.21299 1.33705zm2.92492-1.22128c1.51268-.43245 2.93789-.57068 3.98749-.59975.5236-.01449.9502-.00175 1.2431.01431.1463.00802.259.01685.3334.02348.0372.00331.0648.00607.0822.00789.0087.00091.0149.00159.0184.00199.0018.0002.0029.00033.0034.00038.0002.00003.0002.00003.0001.00002 0 0-.0001-.00002-.0002-.00003s-.0002-.00003-.0003-.00003c-.0001-.00002-.0003-.00004.0888-.74473s.0889-.74471.0887-.74473c-.0001-.00001-.0003-.00004-.0004-.00005-.0003-.00004-.0007-.00008-.0011-.00013-.0008-.00009-.0017-.0002-.0028-.00033-.0023-.00026-.0052-.0006-.0088-.001-.0072-.00081-.0171-.00189-.0295-.0032-.0249-.00261-.0603-.00612-.1054-.01014-.0904-.00804-.2201-.01813-.3844-.02714-.3286-.01802-.7968-.03176-1.3667-.01598-1.1372.0315-2.69323.18094-4.35829.65694zm-4.26857 5.63118c-.79816-1.56365-.27215-3.55676 1.34365-4.4099l-.70037-1.32646c-2.4002 1.2673-3.119344 4.18488-1.9793 6.41836zm7.86396 10.3807 1.2184.7412.7795-1.2815-1.2183-.7412zm7.6855-1.2108c.5151-.9757 1.0158-2.0893 1.337-3.213l-1.4422-.4123c-.2829.9897-.7345 2.0029-1.2213 2.9249zm1.337-3.213c.476-1.6651.6255-3.2211.6569-4.3584.0158-.5699.0021-1.0381-.0159-1.3666-.009-.1644-.0191-.2941-.0272-.3844-.004-.0452-.0075-.0805-.0101-.1054-.0013-.0125-.0024-.0224-.0032-.0296-.0004-.0035-.0007-.0065-.001-.0087-.0001-.0011-.0003-.0021-.0003-.0029-.0001-.0004-.0001-.0007-.0002-.001 0-.0002 0-.0004 0-.0005s-.0001-.0003-.7448.0887c-.7446.0891-.7447.089-.7447.0888v-.0002c0-.0002 0-.0003 0-.0003-.0001-.0001-.0001-.0001 0 .0002 0 .0004.0002.0015.0004.0033.0004.0036.001.0097.0019.0184.0019.0175.0046.045.0079.0822.0067.0744.0155.1871.0235.3335.0161.2929.0288.7195.0143 1.243-.029 1.0496-.1673 2.4749-.5997 3.9876zm-7.7553 5.1923c2.2334 1.14 5.151.4209 6.4183-1.9793l-1.3265-.7004c-.8531 1.6158-2.8462 2.1418-4.4099 1.3437zm.3635-17.54652 6.7157 6.71582 1.0607-1.0607-6.7158-6.71578zm-10.06233 8.34632c2.0955 3.4447 4.987 6.3362 8.43163 8.4317l.7796-1.2815c-3.23959-1.9707-5.95897-4.6901-7.92972-7.9298z" fill="#1c274c"/></svg>